<svg xmlns="http://www.w3.org/2000/svg" fill-rule="evenodd" clip-rule="evenodd" image-rendering="optimizeQuality" shape-rendering="geometricPrecision" text-rendering="geometricPrecision" viewBox="0 0 4335 4335"><path stroke="#000" stroke-width="20" d="M3062 2880s358 92 612-266c193-272 179-597 31-768 40-138 72-289 77-409 13-286-71-351-71-351-13-22-202 327-339 638-215 18-359 188-425 359-81 208-81 705 116 797zM234 2045c-20-103-33-206-33-293 0-286 87-347 87-347 11-17 119 197 225 443 39-7 77-6 112 5 0 0 370 104 393 497s12 658-381 555c-393-104-474-381-474-635 0-80 28-157 71-223zm815-1135c-24-114-39-229-39-325 0-286 87-347 87-347 12-19 152 263 269 549 252-8 483 128 483 580 0 967-692 784-913 139-94-275-21-477 113-596zm1875-106c3-119-3-239-22-335-53-281-150-325-150-325-15-16-92 258-153 545-234 5-472 198-472 769 0 300 162 693 601 439s323-878 323-878c-5-79-54-156-127-216zm-844 3173s289 81 578 150 589 81 555-335c-35-416-624-1421-1219-1369s-907 664-999 965c-92 300-173 612 0 809 173 196 485-35 601-92 116-58 358-196 485-127z"/></svg>