<svg xmlns="http://www.w3.org/2000/svg" viewBox="0 0 32 32"><path d="M5.96 31.5h20.08c.83 0 1.5-.67 1.5-1.5V14.69h1.73c.83 0 1.5-.67 1.5-1.5V7.27c0-.83-.67-1.5-1.5-1.5h-6.84c.24-.5.37-1.03.37-1.59 0-1-.38-1.93-1.08-2.63-1.4-1.4-3.85-1.4-5.25 0-.16.16-.32.35-.47.56-.16-.21-.31-.4-.47-.56-1.4-1.4-3.85-1.4-5.25 0-.7.7-1.08 1.63-1.08 2.63 0 .56.13 1.09.37 1.59H2.73c-.83 0-1.5.67-1.5 1.5v5.92c0 .83.67 1.5 1.5 1.5h1.73V30c0 .83.67 1.5 1.5 1.5zM22.74 8.77h5.03v2.92h-5.03V8.77zm-2.21 5.92h4.01V28.5h-4.01V14.69zM18.59 3.68c.18-.19.39-.21.5-.21.11 0 .32.02.5.21.18.18.21.39.21.5 0 .1-.03.31-.21.5-.4.4-1.4.89-2.04 1.04.15-.64.64-1.64 1.04-2.04zm-6.18 0c.18-.19.39-.21.5-.21.11 0 .32.02.5.21.4.4.89 1.4 1.04 2.04-.64-.15-1.64-.64-2.04-1.04a.741.741 0 0 1-.21-.5c0-.11.03-.32.21-.5zm-.94 11.01V28.5H7.46V14.69h4.01zm-7.24-3V8.77h5.03v2.92H4.23z"/></svg>