<svg xmlns="http://www.w3.org/2000/svg" data-name="Line" viewBox="0 0 64 64"><path d="M49.45035 18.71414a1.00055 1.00055 0 00-1.415.00146l-4.09825 4.09825-1.76253-1.76253 7.65628-7.65384A1.2458 1.2458 0 0151.59747 15.154l-.73016.73016a1.00022 1.00022 0 101.41452 1.41452l.7224-.7224a3.24617 3.24617 0 00-4.588-4.59322c.00006 0-31.65488 31.6486-31.66 31.64977a1.00042 1.00042 0 001.41456 1.41448l22.589-22.58168 1.76272 1.76272L9.11313 57.63733A1.24892 1.24892 0 017.347 55.87157l7.99226-7.9825a1.00022 1.00022 0 00-1.41355-1.4155L5.9329 54.45613a3.22947 3.22947 0 00-.95343 2.2981 3.26671 3.26671 0 005.54871 2.2975l34.12228-34.111 4.80135-4.8116A1.001 1.001 0 0049.45035 18.71414zM58.35019 27.19148L56.9513 26.725A4.09186 4.09186 0 0154.37576 24.15l-.466-1.3984a1.00631 1.00631 0 00-1.89807.00006l-.466 1.39785a4.09111 4.09111 0 01-2.576 2.57554c-.71927.31678-2.0893.36159-2.08221 1.41548-.00859 1.05156 1.35964 1.09827 2.08221 1.41505a4.09214 4.09214 0 012.576 2.57551c.31657.7193.361 2.09005 1.415 2.0827 1.05171.00861 1.0983-1.36 1.41505-2.0827a4.09363 4.09363 0 012.57551-2.57554l1.3984-.466A1.00646 1.00646 0 0058.35019 27.19148zm-5.38944 3.22711a6.12548 6.12548 0 00-2.27856-2.27807 6.12914 6.12914 0 002.27856-2.27808 6.12212 6.12212 0 002.27857 2.27808A6.12558 6.12558 0 0052.96075 30.41859zM15.03154 18.9437l1.39791.466a4.09114 4.09114 0 012.57554 2.576l.46646 1.3984a1.00645 1.00645 0 001.89807-.00054l.466-1.39835A4.09261 4.09261 0 0124.411 19.40968c.7193-.31658 2.09005-.361 2.08269-1.415.00836-1.05179-1.36-1.09862-2.08269-1.41555a4.09175 4.09175 0 01-2.57554-2.575c-.31658-.7193-.361-2.09-1.415-2.08269-1.05178-.00836-1.09862 1.36-1.41554 2.08269a4.08955 4.08955 0 01-2.57551 2.57505l-1.3984.46646A1.00646 1.00646 0 0015.03154 18.9437zm5.38894-3.2276a6.122 6.122 0 002.27808 2.27857 6.12772 6.12772 0 00-2.27808 2.27808 6.12543 6.12543 0 00-2.27856-2.27808A6.12324 6.12324 0 0020.42048 15.7161zM26.905 12.976l1.94106.64718a6.06853 6.06853 0 013.8191 3.8191l.64669 1.94057a1.00036 1.00036 0 001.89808.00049l.64718-1.941a6.067 6.067 0 013.81959-3.81911l1.94057-.64718a1.00648 1.00648 0 00-.00055-1.89807L39.6762 10.4312a6.067 6.067 0 01-3.8191-3.81959L35.20992 4.671a1.00648 1.00648 0 00-1.89807.00054l-.6467 1.94a6.06927 6.06927 0 01-3.8191 3.81959l-1.94057.64669A1.00649 1.00649 0 0026.905 12.976zm7.35589-4.96205a8.09763 8.09763 0 004.013 4.0135 8.09382 8.09382 0 00-4.013 4.01253 8.09574 8.09574 0 00-4.01252-4.013A8.09572 8.09572 0 0034.26088 8.01391zM50.90541 8.35631A1.00037 1.00037 0 0051.90573 7.356V6.068a1.00033 1.00033 0 00-2.00065 0V7.356A1.00038 1.00038 0 0050.90541 8.35631zM54.492 10.16158c.57647.07375 1.23671-.88446 1.61824-1.204a1.00057 1.00057 0 00-1.41554-1.41451l-.91045.91094A1.00714 1.00714 0 0054.492 10.16158zM46.612 9.86851A1.0004 1.0004 0 0048.0265 8.454l-.91089-.91089a1.00022 1.00022 0 00-1.41452 1.41452z"/></svg>