<svg xmlns="http://www.w3.org/2000/svg" enable-background="new 0 0 50 50" viewBox="0 0 50 50"><path d="M3.1 13.3v24.2c0 1.5 1.2 2.8 2.8 2.8h2V10.5h-2C4.3 10.5 3.1 11.8 3.1 13.3zM44.1 10.5h-2v29.7h2c1.5 0 2.8-1.3 2.8-2.8V13.3C46.9 11.8 45.7 10.5 44.1 10.5zM8.1 43.6c0 .9.8 1.7 1.7 1.7h5.4c.9 0 1.7-.8 1.7-1.7v-1.3H8.1V43.6zM33.1 43.6c0 .9.8 1.7 1.7 1.7h5.4c.9 0 1.7-.8 1.7-1.7v-1.3h-8.8V43.6zM33 4.7H17.4c-.6 0-1 .4-1 1v4.8h-6v29.7h29.1V10.5H34V5.7C34 5.2 33.5 4.7 33 4.7zM18.4 6.7H32v3.8H18.4V6.7zM34 27.4c-.5.5-1.2.8-2 .8h-4.2v4.2c0 1.5-1.2 2.8-2.8 2.8-.8 0-1.5-.3-2-.8s-.8-1.2-.8-2v-4.2H18c-1.5 0-2.8-1.2-2.8-2.8 0-1.5 1.2-2.8 2.8-2.8h4.2v-4.2c0-1.5 1.2-2.8 2.8-2.8 1.5 0 2.8 1.2 2.8 2.8v4.2H32c1.5 0 2.8 1.2 2.8 2.8C34.8 26.2 34.5 26.9 34 27.4z"/></svg>