<svg xmlns="http://www.w3.org/2000/svg" viewBox="0 0 100 100"><path d="M49.821 29.867c0-2.608-2.191-4.73-4.884-4.73s-4.884 2.122-4.884 4.73c0 2.607 2.191 4.729 4.884 4.729s4.884-2.121 4.884-4.729zm-6.767 0c0-.954.846-1.73 1.884-1.73s1.884.776 1.884 1.73-.846 1.729-1.884 1.729-1.884-.775-1.884-1.729zM29.562 41.909c2.693 0 4.885-2.122 4.885-4.729 0-2.608-2.191-4.73-4.885-4.73-2.692 0-4.883 2.122-4.883 4.73 0 2.607 2.19 4.729 4.883 4.729zm0-6.46c1.039 0 1.885.776 1.885 1.73s-.846 1.729-1.885 1.729c-1.038 0-1.883-.775-1.883-1.729s.844-1.73 1.883-1.73zm1.332 17.555c0-2.607-2.191-4.729-4.884-4.729s-4.884 2.122-4.884 4.729c0 2.608 2.191 4.73 4.884 4.73s4.884-2.122 4.884-4.73zm-4.884 1.73c-1.038 0-1.884-.776-1.884-1.73s.846-1.729 1.884-1.729 1.884.775 1.884 1.729-.846 1.73-1.884 1.73zm7.895 8.406c-2.693 0-4.885 2.122-4.885 4.729s2.191 4.729 4.885 4.729c2.692 0 4.883-2.122 4.883-4.729s-2.19-4.729-4.883-4.729zm0 6.459c-1.039 0-1.885-.775-1.885-1.729s.846-1.729 1.885-1.729c1.038 0 1.883.775 1.883 1.729s-.845 1.729-1.883 1.729z"/><path d="M81.728 45.613c.209 0 .422.005.635.014 2.832.139 5.316-1.221 6.764-3.641 1.438-2.402 1.442-5.274.013-7.683-2.286-3.848-6.048-8.067-12.202-11.286a15.97 15.97 0 0 0 1.217-3.188c1.008-3.763-.18-6.275-1.229-8.493s-1.954-4.134-.996-7.461l.506-1.754-1.818-.155a14.344 14.344 0 0 0-1.232-.054c-6.406 0-11.738 4.451-13.584 11.34a18.989 18.989 0 0 0-.643 4.851 76.07 76.07 0 0 0-7.553-.369c-26.182 0-41.813 12.383-41.813 33.125 0 16.402 15.129 30.051 34.911 32.666l-1.542 8.063a5.51 5.51 0 0 0 2.961 5.965c.471.235 1.484.521 1.938.521h.008a5.504 5.504 0 0 0 5.548-3.685l3.728-10.724c11.979-1.301 22.693-6.628 29.384-14.813 1.676-2.053 2.277-4.509 1.74-7.102-.537-2.595-2.064-4.609-4.419-5.827-4.424-2.287-6.98-5.139-6.839-7.628.04-.732.151-2.682 4.517-2.682zM62.697 14.029c1.409-5.26 5.265-8.752 9.938-9.09-.473 3.344.607 5.628 1.577 7.68.986 2.087 1.766 3.734 1.042 6.434-.898 3.357-2.616 5.359-4.955 6.66l-7.02-1.88c-1.239-2.886-1.503-6.368-.582-9.804zM48.461 63.884c-1.898-.935-3.046-2.124-3.046-3.256 0-1.381 1.695-2.85 4.402-3.833l-1.356 7.089zm17.155-4.014c.22-.633.429-1.259.633-1.883 1.23.814 1.936 1.747 1.936 2.641 0 1.334-1.584 2.749-4.129 3.73l1.56-4.488zm-1.646-4.628-.01.028a105.858 105.858 0 0 1-1.178 3.615l-2.205 6.342c-3.406.609-6.486.514-9.264-.289l1.66-8.681c1.318-6.889 3.181-12.943 5.309-18.771l9.289 2.488c-.873 4.977-1.978 9.999-3.601 15.268zm-1.475-28.514 6.807 1.824c-.391 2.841-.79 5.646-1.237 8.45l-8.723-2.337a391.587 391.587 0 0 1 3.153-7.937zM50.782 93.405a2.5 2.5 0 0 1-2.556 1.675 6.09 6.09 0 0 1-.686-.169l-.09-.048a2.502 2.502 0 0 1-1.344-2.71l1.592-8.318c1.287.095 2.589.149 3.906.149.829 0 1.653-.023 2.474-.062l-3.296 9.483zm31.889-34.817c1.545.8 2.507 2.068 2.859 3.771.354 1.702-.026 3.248-1.127 4.595-7.179 8.785-19.439 14.03-32.799 14.03-21.401 0-38.813-13.514-38.813-30.125 0-19.145 14.146-30.125 38.813-30.125 2.734 0 5.33.146 7.803.416a16.92 16.92 0 0 0 .838 3.15l-.028.069c-3.806 9.328-7.413 18.171-9.734 29.074-4.81 1.276-8.067 3.976-8.067 7.184 0 3.238 3.316 5.961 8.201 7.224.138.038.276.073.415.109.108.025.22.049.329.072 1.588.381 3.248.591 4.976.591.45 0 .909-.013 1.372-.039 7.625-.253 13.477-3.651 13.477-7.957 0-2.19-1.527-4.142-4.021-5.57 2.809-9.451 4.012-18.083 5.252-27.124a12.41 12.41 0 0 0 2.82-2.388c4.905 2.496 8.732 5.929 11.324 10.29.871 1.467.868 3.146-.008 4.609-.844 1.412-2.207 2.19-3.835 2.19l-.224-.005a16.508 16.508 0 0 0-.766-.018c-6.498 0-7.418 3.855-7.513 5.513-.214 3.762 2.868 7.575 8.456 10.464z"/></svg>